<svg id="visual" viewBox="0 0 900 300" width="900" height="300" xmlns="http://www.w3.org/2000/svg" xmlns:xlink="http://www.w3.org/1999/xlink" version="1.1"><rect x="0" y="0" width="900" height="300" fill="#7952b3"></rect><path d="M0 256L11.5 251.3C23 246.7 46 237.3 69 236.3C92 235.3 115 242.7 138.2 242.5C161.3 242.3 184.7 234.7 207.8 232.5C231 230.3 254 233.7 277 229.2C300 224.7 323 212.3 346 207.7C369 203 392 206 415.2 209.3C438.3 212.7 461.7 216.3 484.8 218.5C508 220.7 531 221.3 554 220.8C577 220.3 600 218.7 623 219.5C646 220.3 669 223.7 692.2 221C715.3 218.3 738.7 209.7 761.8 207C785 204.3 808 207.7 831 210.5C854 213.3 877 215.7 888.5 216.8L900 218L900 0L888.5 0C877 0 854 0 831 0C808 0 785 0 761.8 0C738.7 0 715.3 0 692.2 0C669 0 646 0 623 0C600 0 577 0 554 0C531 0 508 0 484.8 0C461.7 0 438.3 0 415.2 0C392 0 369 0 346 0C323 0 300 0 277 0C254 0 231 0 207.8 0C184.7 0 161.3 0 138.2 0C115 0 92 0 69 0C46 0 23 0 11.5 0L0 0Z" fill="#7952b3"></path><path d="M0 230L11.5 223.3C23 216.7 46 203.3 69 194.7C92 186 115 182 138.2 181.2C161.3 180.3 184.7 182.7 207.8 190.5C231 198.3 254 211.7 277 218.3C300 225 323 225 346 219.8C369 214.7 392 204.3 415.2 202.7C438.3 201 461.7 208 484.8 206.8C508 205.7 531 196.3 554 196.3C577 196.3 600 205.7 623 210.7C646 215.7 669 216.3 692.2 210.7C715.3 205 738.7 193 761.8 188.5C785 184 808 187 831 185.8C854 184.7 877 179.3 888.5 176.7L900 174L900 0L888.5 0C877 0 854 0 831 0C808 0 785 0 761.8 0C738.7 0 715.3 0 692.2 0C669 0 646 0 623 0C600 0 577 0 554 0C531 0 508 0 484.8 0C461.7 0 438.3 0 415.2 0C392 0 369 0 346 0C323 0 300 0 277 0C254 0 231 0 207.8 0C184.7 0 161.3 0 138.2 0C115 0 92 0 69 0C46 0 23 0 11.5 0L0 0Z" fill="#694899"></path><path d="M0 185L11.5 183.3C23 181.7 46 178.3 69 175.5C92 172.7 115 170.3 138.2 174.2C161.3 178 184.7 188 207.8 189.7C231 191.3 254 184.7 277 177C300 169.3 323 160.7 346 163.7C369 166.7 392 181.3 415.2 187.8C438.3 194.3 461.7 192.7 484.8 193.2C508 193.7 531 196.3 554 191.2C577 186 600 173 623 167.5C646 162 669 164 692.2 170.3C715.3 176.7 738.7 187.3 761.8 188C785 188.7 808 179.3 831 173.5C854 167.7 877 165.3 888.5 164.2L900 163L900 0L888.5 0C877 0 854 0 831 0C808 0 785 0 761.8 0C738.7 0 715.3 0 692.2 0C669 0 646 0 623 0C600 0 577 0 554 0C531 0 508 0 484.8 0C461.7 0 438.3 0 415.2 0C392 0 369 0 346 0C323 0 300 0 277 0C254 0 231 0 207.8 0C184.7 0 161.3 0 138.2 0C115 0 92 0 69 0C46 0 23 0 11.5 0L0 0Z" fill="#593e7f"></path><path d="M0 126L11.5 132.3C23 138.7 46 151.3 69 158.2C92 165 115 166 138.2 163.3C161.3 160.7 184.7 154.3 207.8 154.5C231 154.7 254 161.3 277 164.2C300 167 323 166 346 158.7C369 151.3 392 137.7 415.2 136.5C438.3 135.3 461.7 146.7 484.8 147.8C508 149 531 140 554 136.2C577 132.3 600 133.7 623 133C646 132.3 669 129.7 692.2 135.3C715.3 141 738.7 155 761.8 154C785 153 808 137 831 129.3C854 121.7 877 122.3 888.5 122.7L900 123L900 0L888.5 0C877 0 854 0 831 0C808 0 785 0 761.8 0C738.7 0 715.3 0 692.2 0C669 0 646 0 623 0C600 0 577 0 554 0C531 0 508 0 484.8 0C461.7 0 438.3 0 415.2 0C392 0 369 0 346 0C323 0 300 0 277 0C254 0 231 0 207.8 0C184.7 0 161.3 0 138.2 0C115 0 92 0 69 0C46 0 23 0 11.5 0L0 0Z" fill="#4a3567"></path><path d="M0 108L11.5 108.8C23 109.7 46 111.3 69 110C92 108.7 115 104.3 138.2 106.3C161.3 108.3 184.7 116.7 207.8 122C231 127.3 254 129.7 277 130.8C300 132 323 132 346 126C369 120 392 108 415.2 107.5C438.3 107 461.7 118 484.8 125.2C508 132.3 531 135.7 554 132.8C577 130 600 121 623 120.8C646 120.7 669 129.3 692.2 134C715.3 138.7 738.7 139.3 761.8 136.3C785 133.3 808 126.7 831 122.2C854 117.7 877 115.3 888.5 114.2L900 113L900 0L888.5 0C877 0 854 0 831 0C808 0 785 0 761.8 0C738.7 0 715.3 0 692.2 0C669 0 646 0 623 0C600 0 577 0 554 0C531 0 508 0 484.8 0C461.7 0 438.3 0 415.2 0C392 0 369 0 346 0C323 0 300 0 277 0C254 0 231 0 207.8 0C184.7 0 161.3 0 138.2 0C115 0 92 0 69 0C46 0 23 0 11.5 0L0 0Z" fill="#3b2b4f"></path><path d="M0 107L11.5 105.2C23 103.3 46 99.7 69 96.5C92 93.3 115 90.7 138.2 92.5C161.3 94.3 184.7 100.7 207.8 98.2C231 95.7 254 84.3 277 82C300 79.7 323 86.3 346 85.8C369 85.3 392 77.7 415.2 76.7C438.3 75.7 461.7 81.3 484.8 85.5C508 89.7 531 92.3 554 93.7C577 95 600 95 623 90.7C646 86.3 669 77.7 692.2 74.8C715.3 72 738.7 75 761.8 81.8C785 88.7 808 99.3 831 101.8C854 104.3 877 98.7 888.5 95.8L900 93L900 0L888.5 0C877 0 854 0 831 0C808 0 785 0 761.8 0C738.7 0 715.3 0 692.2 0C669 0 646 0 623 0C600 0 577 0 554 0C531 0 508 0 484.8 0C461.7 0 438.3 0 415.2 0C392 0 369 0 346 0C323 0 300 0 277 0C254 0 231 0 207.8 0C184.7 0 161.3 0 138.2 0C115 0 92 0 69 0C46 0 23 0 11.5 0L0 0Z" fill="#2c2239"></path><path d="M0 61L11.5 60.7C23 60.3 46 59.7 69 59.7C92 59.7 115 60.3 138.2 57.7C161.3 55 184.7 49 207.8 46C231 43 254 43 277 48C300 53 323 63 346 63.7C369 64.3 392 55.7 415.2 51C438.3 46.3 461.7 45.7 484.8 45.5C508 45.3 531 45.7 554 48.8C577 52 600 58 623 58.3C646 58.7 669 53.3 692.2 54.3C715.3 55.3 738.7 62.7 761.8 61.7C785 60.7 808 51.3 831 47.8C854 44.3 877 46.7 888.5 47.8L900 49L900 0L888.5 0C877 0 854 0 831 0C808 0 785 0 761.8 0C738.7 0 715.3 0 692.2 0C669 0 646 0 623 0C600 0 577 0 554 0C531 0 508 0 484.8 0C461.7 0 438.3 0 415.2 0C392 0 369 0 346 0C323 0 300 0 277 0C254 0 231 0 207.8 0C184.7 0 161.3 0 138.2 0C115 0 92 0 69 0C46 0 23 0 11.5 0L0 0Z" fill="#1e1923"></path><path d="M0 26L11.5 28.8C23 31.7 46 37.3 69 40C92 42.7 115 42.3 138.2 41.2C161.3 40 184.7 38 207.8 39.2C231 40.3 254 44.7 277 44.8C300 45 323 41 346 36.5C369 32 392 27 415.2 25C438.3 23 461.7 24 484.8 24.8C508 25.7 531 26.3 554 26.5C577 26.7 600 26.3 623 25.2C646 24 669 22 692.2 24.5C715.3 27 738.7 34 761.8 36.3C785 38.7 808 36.3 831 34C854 31.7 877 29.3 888.5 28.2L900 27L900 0L888.5 0C877 0 854 0 831 0C808 0 785 0 761.8 0C738.7 0 715.3 0 692.2 0C669 0 646 0 623 0C600 0 577 0 554 0C531 0 508 0 484.8 0C461.7 0 438.3 0 415.2 0C392 0 369 0 346 0C323 0 300 0 277 0C254 0 231 0 207.8 0C184.7 0 161.3 0 138.2 0C115 0 92 0 69 0C46 0 23 0 11.5 0L0 0Z" fill="#0e0e0e"></path></svg>