<svg id="visual" viewBox="0 0 900 300" width="900" height="300" xmlns="http://www.w3.org/2000/svg" xmlns:xlink="http://www.w3.org/1999/xlink" version="1.1"><rect x="0" y="0" width="900" height="300" fill="#FFFFFF"></rect><path d="M0 90L11.5 91C23 92 46 94 69 85C92 76 115 56 138.2 51.5C161.3 47 184.7 58 207.8 63.3C231 68.7 254 68.3 277 67.5C300 66.7 323 65.3 346 61.2C369 57 392 50 415.2 46.3C438.3 42.7 461.7 42.3 484.8 47.3C508 52.3 531 62.7 554 72.3C577 82 600 91 623 95.2C646 99.3 669 98.7 692.2 91.7C715.3 84.7 738.7 71.3 761.8 62.5C785 53.7 808 49.3 831 54C854 58.7 877 72.3 888.5 79.2L900 86L900 301L888.5 301C877 301 854 301 831 301C808 301 785 301 761.8 301C738.7 301 715.3 301 692.2 301C669 301 646 301 623 301C600 301 577 301 554 301C531 301 508 301 484.8 301C461.7 301 438.3 301 415.2 301C392 301 369 301 346 301C323 301 300 301 277 301C254 301 231 301 207.8 301C184.7 301 161.3 301 138.2 301C115 301 92 301 69 301C46 301 23 301 11.5 301L0 301Z" fill="#fffafa"></path><path d="M0 76L11.5 83.3C23 90.7 46 105.3 69 107.8C92 110.3 115 100.7 138.2 93C161.3 85.3 184.7 79.7 207.8 79.3C231 79 254 84 277 85.3C300 86.7 323 84.3 346 89.3C369 94.3 392 106.7 415.2 110.2C438.3 113.7 461.7 108.3 484.8 106.5C508 104.7 531 106.3 554 102.5C577 98.7 600 89.3 623 83.8C646 78.3 669 76.7 692.2 84C715.3 91.3 738.7 107.7 761.8 109.2C785 110.7 808 97.3 831 97C854 96.7 877 109.3 888.5 115.7L900 122L900 301L888.5 301C877 301 854 301 831 301C808 301 785 301 761.8 301C738.7 301 715.3 301 692.2 301C669 301 646 301 623 301C600 301 577 301 554 301C531 301 508 301 484.8 301C461.7 301 438.3 301 415.2 301C392 301 369 301 346 301C323 301 300 301 277 301C254 301 231 301 207.8 301C184.7 301 161.3 301 138.2 301C115 301 92 301 69 301C46 301 23 301 11.5 301L0 301Z" fill="#d8d4d4"></path><path d="M0 133L11.5 127.8C23 122.7 46 112.3 69 111.2C92 110 115 118 138.2 122.8C161.3 127.7 184.7 129.3 207.8 132.3C231 135.3 254 139.7 277 141.8C300 144 323 144 346 139.3C369 134.7 392 125.3 415.2 121.2C438.3 117 461.7 118 484.8 114.7C508 111.3 531 103.7 554 105.2C577 106.7 600 117.3 623 117.7C646 118 669 108 692.2 111C715.3 114 738.7 130 761.8 139C785 148 808 150 831 151C854 152 877 152 888.5 152L900 152L900 301L888.5 301C877 301 854 301 831 301C808 301 785 301 761.8 301C738.7 301 715.3 301 692.2 301C669 301 646 301 623 301C600 301 577 301 554 301C531 301 508 301 484.8 301C461.7 301 438.3 301 415.2 301C392 301 369 301 346 301C323 301 300 301 277 301C254 301 231 301 207.8 301C184.7 301 161.3 301 138.2 301C115 301 92 301 69 301C46 301 23 301 11.5 301L0 301Z" fill="#b2afaf"></path><path d="M0 178L11.5 171.3C23 164.7 46 151.3 69 145.5C92 139.7 115 141.3 138.2 146.2C161.3 151 184.7 159 207.8 156.2C231 153.3 254 139.7 277 141C300 142.3 323 158.7 346 162.3C369 166 392 157 415.2 150C438.3 143 461.7 138 484.8 139C508 140 531 147 554 149.2C577 151.3 600 148.7 623 151C646 153.3 669 160.7 692.2 165.7C715.3 170.7 738.7 173.3 761.8 170.3C785 167.3 808 158.7 831 155.5C854 152.3 877 154.7 888.5 155.8L900 157L900 301L888.5 301C877 301 854 301 831 301C808 301 785 301 761.8 301C738.7 301 715.3 301 692.2 301C669 301 646 301 623 301C600 301 577 301 554 301C531 301 508 301 484.8 301C461.7 301 438.3 301 415.2 301C392 301 369 301 346 301C323 301 300 301 277 301C254 301 231 301 207.8 301C184.7 301 161.3 301 138.2 301C115 301 92 301 69 301C46 301 23 301 11.5 301L0 301Z" fill="#8e8b8b"></path><path d="M0 190L11.5 185C23 180 46 170 69 169.3C92 168.7 115 177.3 138.2 179C161.3 180.7 184.7 175.3 207.8 177.3C231 179.3 254 188.7 277 192.5C300 196.3 323 194.7 346 194.2C369 193.7 392 194.3 415.2 190.2C438.3 186 461.7 177 484.8 178C508 179 531 190 554 192.5C577 195 600 189 623 183.5C646 178 669 173 692.2 170.5C715.3 168 738.7 168 761.8 172.7C785 177.3 808 186.7 831 188.7C854 190.7 877 185.3 888.5 182.7L900 180L900 301L888.5 301C877 301 854 301 831 301C808 301 785 301 761.8 301C738.7 301 715.3 301 692.2 301C669 301 646 301 623 301C600 301 577 301 554 301C531 301 508 301 484.8 301C461.7 301 438.3 301 415.2 301C392 301 369 301 346 301C323 301 300 301 277 301C254 301 231 301 207.8 301C184.7 301 161.3 301 138.2 301C115 301 92 301 69 301C46 301 23 301 11.5 301L0 301Z" fill="#6b6969"></path><path d="M0 196L11.5 196C23 196 46 196 69 197C92 198 115 200 138.2 203.8C161.3 207.7 184.7 213.3 207.8 213.2C231 213 254 207 277 203C300 199 323 197 346 197.5C369 198 392 201 415.2 200.2C438.3 199.3 461.7 194.7 484.8 194.5C508 194.3 531 198.7 554 203.5C577 208.3 600 213.7 623 215.8C646 218 669 217 692.2 216.8C715.3 216.7 738.7 217.3 761.8 217C785 216.7 808 215.3 831 212.5C854 209.7 877 205.3 888.5 203.2L900 201L900 301L888.5 301C877 301 854 301 831 301C808 301 785 301 761.8 301C738.7 301 715.3 301 692.2 301C669 301 646 301 623 301C600 301 577 301 554 301C531 301 508 301 484.8 301C461.7 301 438.3 301 415.2 301C392 301 369 301 346 301C323 301 300 301 277 301C254 301 231 301 207.8 301C184.7 301 161.3 301 138.2 301C115 301 92 301 69 301C46 301 23 301 11.5 301L0 301Z" fill="#4a4949"></path><path d="M0 226L11.5 225.3C23 224.7 46 223.3 69 226.3C92 229.3 115 236.7 138.2 236.3C161.3 236 184.7 228 207.8 224C231 220 254 220 277 221.7C300 223.3 323 226.7 346 227C369 227.3 392 224.7 415.2 227.3C438.3 230 461.7 238 484.8 241.7C508 245.3 531 244.7 554 243.3C577 242 600 240 623 237.5C646 235 669 232 692.2 231C715.3 230 738.7 231 761.8 234.7C785 238.3 808 244.7 831 248.7C854 252.7 877 254.3 888.5 255.2L900 256L900 301L888.5 301C877 301 854 301 831 301C808 301 785 301 761.8 301C738.7 301 715.3 301 692.2 301C669 301 646 301 623 301C600 301 577 301 554 301C531 301 508 301 484.8 301C461.7 301 438.3 301 415.2 301C392 301 369 301 346 301C323 301 300 301 277 301C254 301 231 301 207.8 301C184.7 301 161.3 301 138.2 301C115 301 92 301 69 301C46 301 23 301 11.5 301L0 301Z" fill="#2b2b2b"></path><path d="M0 267L11.5 267.7C23 268.3 46 269.7 69 272.2C92 274.7 115 278.3 138.2 279.7C161.3 281 184.7 280 207.8 277.8C231 275.7 254 272.3 277 268.2C300 264 323 259 346 257C369 255 392 256 415.2 258.7C438.3 261.3 461.7 265.7 484.8 268.5C508 271.3 531 272.7 554 270.5C577 268.3 600 262.7 623 263.3C646 264 669 271 692.2 269.8C715.3 268.7 738.7 259.3 761.8 258.7C785 258 808 266 831 268.5C854 271 877 268 888.5 266.5L900 265L900 301L888.5 301C877 301 854 301 831 301C808 301 785 301 761.8 301C738.7 301 715.3 301 692.2 301C669 301 646 301 623 301C600 301 577 301 554 301C531 301 508 301 484.8 301C461.7 301 438.3 301 415.2 301C392 301 369 301 346 301C323 301 300 301 277 301C254 301 231 301 207.8 301C184.7 301 161.3 301 138.2 301C115 301 92 301 69 301C46 301 23 301 11.5 301L0 301Z" fill="#0e0e0e"></path></svg>